%TF.GenerationSoftware,KiCad,Pcbnew,4.0.7*%
%TF.CreationDate,2018-04-09T00:36:22-04:00*%
%TF.ProjectId,TemperatureHumidityEPD,54656D706572617475726548756D6964,rev?*%
%TF.FileFunction,Copper,L2,Bot,Signal*%
%FSLAX46Y46*%
G04 Gerber Fmt 4.6, Leading zero omitted, Abs format (unit mm)*
G04 Created by KiCad (PCBNEW 4.0.7) date Monday, 09 April 2018 'AMt' 00:36:22*
%MOMM*%
%LPD*%
G01*
G04 APERTURE LIST*
%ADD10C,0.127000*%
%ADD11R,5.000000X3.500000*%
%ADD12R,1.700000X1.700000*%
%ADD13O,1.700000X1.700000*%
%ADD14C,4.064000*%
%ADD15C,0.685800*%
%ADD16C,0.304800*%
%ADD17C,0.254000*%
G04 APERTURE END LIST*
D10*
D11*
X108090000Y-96500000D03*
X139910000Y-96500000D03*
D12*
X102800000Y-105860000D03*
D13*
X102800000Y-103320000D03*
X102800000Y-100780000D03*
X102800000Y-98240000D03*
X102800000Y-95700000D03*
X102800000Y-93160000D03*
X102800000Y-90620000D03*
X102800000Y-88080000D03*
D12*
X145200000Y-91760000D03*
D13*
X145200000Y-94300000D03*
X145200000Y-96840000D03*
X145200000Y-99380000D03*
X145200000Y-101920000D03*
D12*
X134000000Y-85000000D03*
D13*
X136540000Y-85000000D03*
D14*
X145500000Y-110500000D03*
X102500000Y-82500000D03*
X102500000Y-110500000D03*
X145500000Y-82500000D03*
D15*
X128300000Y-94500000D03*
X123600000Y-102000000D03*
X116000000Y-91800000D03*
X125900000Y-91600000D03*
X124900000Y-91000000D03*
X126700000Y-92323910D03*
X128900000Y-92400000D03*
D16*
X145200000Y-91760000D02*
X145200000Y-90605200D01*
X145200000Y-90605200D02*
X141694800Y-87100000D01*
X141694800Y-87100000D02*
X134945200Y-87100000D01*
X134945200Y-87100000D02*
X134000000Y-86154800D01*
X134000000Y-86154800D02*
X134000000Y-85000000D01*
X105100000Y-89000000D02*
X104180000Y-88080000D01*
X104180000Y-88080000D02*
X102800000Y-88080000D01*
X105100000Y-91455200D02*
X105100000Y-89000000D01*
X108090000Y-96500000D02*
X108090000Y-94445200D01*
X108090000Y-94445200D02*
X105100000Y-91455200D01*
X108090000Y-96500000D02*
X108840000Y-96500000D01*
X108840000Y-96500000D02*
X122740000Y-82600000D01*
X134000000Y-83845200D02*
X134000000Y-85000000D01*
X122740000Y-82600000D02*
X132754800Y-82600000D01*
X132754800Y-82600000D02*
X134000000Y-83845200D01*
D17*
X116000000Y-91800000D02*
X126120000Y-101920000D01*
X126120000Y-101920000D02*
X145200000Y-101920000D01*
X140800000Y-91600000D02*
X143500000Y-94300000D01*
X143500000Y-94300000D02*
X145200000Y-94300000D01*
X125900000Y-91600000D02*
X140800000Y-91600000D01*
X124900000Y-91000000D02*
X125242899Y-90657101D01*
X145790881Y-93068999D02*
X146431001Y-93709119D01*
X125242899Y-90657101D02*
X141711299Y-90657101D01*
X141711299Y-90657101D02*
X144123197Y-93068999D01*
X144123197Y-93068999D02*
X145790881Y-93068999D01*
X146431001Y-93709119D02*
X146431001Y-95608999D01*
X146431001Y-95608999D02*
X146049999Y-95990001D01*
X146049999Y-95990001D02*
X145200000Y-96840000D01*
X128900000Y-92400000D02*
X126776090Y-92400000D01*
X126776090Y-92400000D02*
X126700000Y-92323910D01*
G36*
X144192408Y-80539348D02*
X143541633Y-81188988D01*
X143189002Y-82038217D01*
X143188200Y-82957749D01*
X143539348Y-83807592D01*
X144188988Y-84458367D01*
X145038217Y-84810998D01*
X145957749Y-84811800D01*
X146807592Y-84460652D01*
X147458367Y-83811012D01*
X147657100Y-83332410D01*
X147657100Y-109667848D01*
X147460652Y-109192408D01*
X146811012Y-108541633D01*
X145961783Y-108189002D01*
X145042251Y-108188200D01*
X144192408Y-108539348D01*
X143541633Y-109188988D01*
X143189002Y-110038217D01*
X143188200Y-110957749D01*
X143539348Y-111807592D01*
X144188988Y-112458367D01*
X144667590Y-112657100D01*
X103332152Y-112657100D01*
X103807592Y-112460652D01*
X104458367Y-111811012D01*
X104810998Y-110961783D01*
X104811800Y-110042251D01*
X104460652Y-109192408D01*
X103811012Y-108541633D01*
X102961783Y-108189002D01*
X102042251Y-108188200D01*
X101192408Y-108539348D01*
X100541633Y-109188988D01*
X100342900Y-109667590D01*
X100342900Y-105010000D01*
X101665127Y-105010000D01*
X101665127Y-106710000D01*
X101684609Y-106813539D01*
X101745801Y-106908634D01*
X101839168Y-106972429D01*
X101950000Y-106994873D01*
X103650000Y-106994873D01*
X103753539Y-106975391D01*
X103848634Y-106914199D01*
X103912429Y-106820832D01*
X103934873Y-106710000D01*
X103934873Y-105010000D01*
X103915391Y-104906461D01*
X103854199Y-104811366D01*
X103760832Y-104747571D01*
X103650000Y-104725127D01*
X101950000Y-104725127D01*
X101846461Y-104744609D01*
X101751366Y-104805801D01*
X101687571Y-104899168D01*
X101665127Y-105010000D01*
X100342900Y-105010000D01*
X100342900Y-103320000D01*
X101648474Y-103320000D01*
X101734444Y-103752203D01*
X101979268Y-104118606D01*
X102345671Y-104363430D01*
X102777874Y-104449400D01*
X102822126Y-104449400D01*
X103254329Y-104363430D01*
X103620732Y-104118606D01*
X103865556Y-103752203D01*
X103951526Y-103320000D01*
X103865556Y-102887797D01*
X103620732Y-102521394D01*
X103254329Y-102276570D01*
X102822126Y-102190600D01*
X102777874Y-102190600D01*
X102345671Y-102276570D01*
X101979268Y-102521394D01*
X101734444Y-102887797D01*
X101648474Y-103320000D01*
X100342900Y-103320000D01*
X100342900Y-100780000D01*
X101648474Y-100780000D01*
X101734444Y-101212203D01*
X101979268Y-101578606D01*
X102345671Y-101823430D01*
X102777874Y-101909400D01*
X102822126Y-101909400D01*
X103254329Y-101823430D01*
X103620732Y-101578606D01*
X103865556Y-101212203D01*
X103951526Y-100780000D01*
X103865556Y-100347797D01*
X103620732Y-99981394D01*
X103254329Y-99736570D01*
X102822126Y-99650600D01*
X102777874Y-99650600D01*
X102345671Y-99736570D01*
X101979268Y-99981394D01*
X101734444Y-100347797D01*
X101648474Y-100780000D01*
X100342900Y-100780000D01*
X100342900Y-98240000D01*
X101648474Y-98240000D01*
X101734444Y-98672203D01*
X101979268Y-99038606D01*
X102345671Y-99283430D01*
X102777874Y-99369400D01*
X102822126Y-99369400D01*
X103254329Y-99283430D01*
X103620732Y-99038606D01*
X103865556Y-98672203D01*
X103951526Y-98240000D01*
X103865556Y-97807797D01*
X103620732Y-97441394D01*
X103254329Y-97196570D01*
X102822126Y-97110600D01*
X102777874Y-97110600D01*
X102345671Y-97196570D01*
X101979268Y-97441394D01*
X101734444Y-97807797D01*
X101648474Y-98240000D01*
X100342900Y-98240000D01*
X100342900Y-95700000D01*
X101648474Y-95700000D01*
X101734444Y-96132203D01*
X101979268Y-96498606D01*
X102345671Y-96743430D01*
X102777874Y-96829400D01*
X102822126Y-96829400D01*
X103254329Y-96743430D01*
X103620732Y-96498606D01*
X103865556Y-96132203D01*
X103951526Y-95700000D01*
X103865556Y-95267797D01*
X103620732Y-94901394D01*
X103254329Y-94656570D01*
X102822126Y-94570600D01*
X102777874Y-94570600D01*
X102345671Y-94656570D01*
X101979268Y-94901394D01*
X101734444Y-95267797D01*
X101648474Y-95700000D01*
X100342900Y-95700000D01*
X100342900Y-90976890D01*
X101358524Y-90976890D01*
X101528355Y-91386924D01*
X101918642Y-91815183D01*
X102443108Y-92061486D01*
X102672998Y-91940820D01*
X102672998Y-92051461D01*
X102345671Y-92116570D01*
X101979268Y-92361394D01*
X101734444Y-92727797D01*
X101648474Y-93160000D01*
X101734444Y-93592203D01*
X101979268Y-93958606D01*
X102345671Y-94203430D01*
X102777874Y-94289400D01*
X102822126Y-94289400D01*
X103254329Y-94203430D01*
X103620732Y-93958606D01*
X103865556Y-93592203D01*
X103951526Y-93160000D01*
X103865556Y-92727797D01*
X103620732Y-92361394D01*
X103254329Y-92116570D01*
X102927002Y-92051461D01*
X102927002Y-91940820D01*
X103156892Y-92061486D01*
X103681358Y-91815183D01*
X104071645Y-91386924D01*
X104241476Y-90976890D01*
X104120155Y-90747000D01*
X102927000Y-90747000D01*
X102927000Y-90767000D01*
X102673000Y-90767000D01*
X102673000Y-90747000D01*
X101479845Y-90747000D01*
X101358524Y-90976890D01*
X100342900Y-90976890D01*
X100342900Y-90263110D01*
X101358524Y-90263110D01*
X101479845Y-90493000D01*
X102673000Y-90493000D01*
X102673000Y-90473000D01*
X102927000Y-90473000D01*
X102927000Y-90493000D01*
X104120155Y-90493000D01*
X104241476Y-90263110D01*
X104071645Y-89853076D01*
X103681358Y-89424817D01*
X103325448Y-89257673D01*
X103731481Y-88986369D01*
X103943251Y-88669435D01*
X104515800Y-89241983D01*
X104515800Y-91455200D01*
X104560270Y-91678764D01*
X104639043Y-91796657D01*
X104686908Y-91868292D01*
X107128358Y-94309741D01*
X105590000Y-94309741D01*
X105429985Y-94339850D01*
X105283020Y-94434419D01*
X105184427Y-94578715D01*
X105149741Y-94750000D01*
X105149741Y-98250000D01*
X105179850Y-98410015D01*
X105274419Y-98556980D01*
X105418715Y-98655573D01*
X105590000Y-98690259D01*
X110590000Y-98690259D01*
X110750015Y-98660150D01*
X110896980Y-98565581D01*
X110995573Y-98421285D01*
X111030259Y-98250000D01*
X111030259Y-95135925D01*
X114242943Y-91923240D01*
X115377592Y-91923240D01*
X115472132Y-92152044D01*
X115647035Y-92327253D01*
X115875674Y-92422192D01*
X116047606Y-92422342D01*
X125832632Y-102207368D01*
X125964477Y-102295465D01*
X126120000Y-102326400D01*
X144129311Y-102326400D01*
X144134444Y-102352203D01*
X144379268Y-102718606D01*
X144745671Y-102963430D01*
X145177874Y-103049400D01*
X145222126Y-103049400D01*
X145654329Y-102963430D01*
X146020732Y-102718606D01*
X146265556Y-102352203D01*
X146351526Y-101920000D01*
X146265556Y-101487797D01*
X146020732Y-101121394D01*
X145654329Y-100876570D01*
X145327002Y-100811461D01*
X145327002Y-100700820D01*
X145556892Y-100821486D01*
X146081358Y-100575183D01*
X146471645Y-100146924D01*
X146641476Y-99736890D01*
X146520155Y-99507000D01*
X145327000Y-99507000D01*
X145327000Y-99527000D01*
X145073000Y-99527000D01*
X145073000Y-99507000D01*
X143879845Y-99507000D01*
X143758524Y-99736890D01*
X143928355Y-100146924D01*
X144318642Y-100575183D01*
X144843108Y-100821486D01*
X145072998Y-100700820D01*
X145072998Y-100811461D01*
X144745671Y-100876570D01*
X144379268Y-101121394D01*
X144134444Y-101487797D01*
X144129311Y-101513600D01*
X126288336Y-101513600D01*
X121560486Y-96785750D01*
X136775000Y-96785750D01*
X136775000Y-98376310D01*
X136871673Y-98609699D01*
X137050302Y-98788327D01*
X137283691Y-98885000D01*
X139624250Y-98885000D01*
X139783000Y-98726250D01*
X139783000Y-96627000D01*
X140037000Y-96627000D01*
X140037000Y-98726250D01*
X140195750Y-98885000D01*
X142536309Y-98885000D01*
X142769698Y-98788327D01*
X142948327Y-98609699D01*
X143045000Y-98376310D01*
X143045000Y-96785750D01*
X142886250Y-96627000D01*
X140037000Y-96627000D01*
X139783000Y-96627000D01*
X136933750Y-96627000D01*
X136775000Y-96785750D01*
X121560486Y-96785750D01*
X119398426Y-94623690D01*
X136775000Y-94623690D01*
X136775000Y-96214250D01*
X136933750Y-96373000D01*
X139783000Y-96373000D01*
X139783000Y-94273750D01*
X140037000Y-94273750D01*
X140037000Y-96373000D01*
X142886250Y-96373000D01*
X143045000Y-96214250D01*
X143045000Y-94623690D01*
X142948327Y-94390301D01*
X142769698Y-94211673D01*
X142536309Y-94115000D01*
X140195750Y-94115000D01*
X140037000Y-94273750D01*
X139783000Y-94273750D01*
X139624250Y-94115000D01*
X137283691Y-94115000D01*
X137050302Y-94211673D01*
X136871673Y-94390301D01*
X136775000Y-94623690D01*
X119398426Y-94623690D01*
X116622259Y-91847523D01*
X116622408Y-91676760D01*
X116527868Y-91447956D01*
X116352965Y-91272747D01*
X116124326Y-91177808D01*
X115876760Y-91177592D01*
X115647956Y-91272132D01*
X115472747Y-91447035D01*
X115377808Y-91675674D01*
X115377592Y-91923240D01*
X114242943Y-91923240D01*
X122981983Y-83184200D01*
X132512816Y-83184200D01*
X133056037Y-83727421D01*
X132989985Y-83739850D01*
X132843020Y-83834419D01*
X132744427Y-83978715D01*
X132709741Y-84150000D01*
X132709741Y-85850000D01*
X132739850Y-86010015D01*
X132834419Y-86156980D01*
X132978715Y-86255573D01*
X133150000Y-86290259D01*
X133442745Y-86290259D01*
X133460270Y-86378364D01*
X133581815Y-86560270D01*
X133586908Y-86567892D01*
X134532108Y-87513092D01*
X134721637Y-87639731D01*
X134945200Y-87684201D01*
X134945205Y-87684200D01*
X141452816Y-87684200D01*
X144256037Y-90487421D01*
X144189985Y-90499850D01*
X144043020Y-90594419D01*
X143944427Y-90738715D01*
X143909741Y-90910000D01*
X143909741Y-92280807D01*
X141998667Y-90369733D01*
X141866822Y-90281636D01*
X141711299Y-90250701D01*
X125242899Y-90250701D01*
X125087376Y-90281636D01*
X124955531Y-90369733D01*
X124947523Y-90377741D01*
X124776760Y-90377592D01*
X124547956Y-90472132D01*
X124372747Y-90647035D01*
X124277808Y-90875674D01*
X124277592Y-91123240D01*
X124372132Y-91352044D01*
X124547035Y-91527253D01*
X124775674Y-91622192D01*
X125023240Y-91622408D01*
X125252044Y-91527868D01*
X125277785Y-91502172D01*
X125277592Y-91723240D01*
X125372132Y-91952044D01*
X125547035Y-92127253D01*
X125775674Y-92222192D01*
X126023240Y-92222408D01*
X126077808Y-92199861D01*
X126077592Y-92447150D01*
X126172132Y-92675954D01*
X126347035Y-92851163D01*
X126575674Y-92946102D01*
X126823240Y-92946318D01*
X127052044Y-92851778D01*
X127097501Y-92806400D01*
X128426393Y-92806400D01*
X128547035Y-92927253D01*
X128775674Y-93022192D01*
X129023240Y-93022408D01*
X129252044Y-92927868D01*
X129427253Y-92752965D01*
X129522192Y-92524326D01*
X129522408Y-92276760D01*
X129427868Y-92047956D01*
X129386385Y-92006400D01*
X140631664Y-92006400D01*
X143212632Y-94587368D01*
X143344477Y-94675465D01*
X143500000Y-94706400D01*
X144129311Y-94706400D01*
X144134444Y-94732203D01*
X144379268Y-95098606D01*
X144745671Y-95343430D01*
X145177874Y-95429400D01*
X145222126Y-95429400D01*
X145654329Y-95343430D01*
X146020732Y-95098606D01*
X146024601Y-95092816D01*
X146024601Y-95440663D01*
X145662940Y-95802324D01*
X145654329Y-95796570D01*
X145222126Y-95710600D01*
X145177874Y-95710600D01*
X144745671Y-95796570D01*
X144379268Y-96041394D01*
X144134444Y-96407797D01*
X144048474Y-96840000D01*
X144134444Y-97272203D01*
X144379268Y-97638606D01*
X144745671Y-97883430D01*
X145072998Y-97948539D01*
X145072998Y-98059180D01*
X144843108Y-97938514D01*
X144318642Y-98184817D01*
X143928355Y-98613076D01*
X143758524Y-99023110D01*
X143879845Y-99253000D01*
X145073000Y-99253000D01*
X145073000Y-99233000D01*
X145327000Y-99233000D01*
X145327000Y-99253000D01*
X146520155Y-99253000D01*
X146641476Y-99023110D01*
X146471645Y-98613076D01*
X146081358Y-98184817D01*
X145556892Y-97938514D01*
X145327002Y-98059180D01*
X145327002Y-97948539D01*
X145654329Y-97883430D01*
X146020732Y-97638606D01*
X146265556Y-97272203D01*
X146351526Y-96840000D01*
X146265556Y-96407797D01*
X146242077Y-96372659D01*
X146718369Y-95896367D01*
X146806466Y-95764522D01*
X146837401Y-95608999D01*
X146837401Y-93709119D01*
X146806466Y-93553596D01*
X146718369Y-93421751D01*
X146274970Y-92978352D01*
X146356980Y-92925581D01*
X146455573Y-92781285D01*
X146490259Y-92610000D01*
X146490259Y-90910000D01*
X146460150Y-90749985D01*
X146365581Y-90603020D01*
X146221285Y-90504427D01*
X146050000Y-90469741D01*
X145757255Y-90469741D01*
X145739730Y-90381636D01*
X145613092Y-90192108D01*
X142107892Y-86686908D01*
X141918364Y-86560270D01*
X141694800Y-86515800D01*
X135187184Y-86515800D01*
X134943963Y-86272579D01*
X135010015Y-86260150D01*
X135156980Y-86165581D01*
X135255573Y-86021285D01*
X135290259Y-85850000D01*
X135290259Y-85765185D01*
X135344817Y-85881358D01*
X135773076Y-86271645D01*
X136183110Y-86441476D01*
X136413000Y-86320155D01*
X136413000Y-85127000D01*
X136667000Y-85127000D01*
X136667000Y-86320155D01*
X136896890Y-86441476D01*
X137306924Y-86271645D01*
X137735183Y-85881358D01*
X137981486Y-85356892D01*
X137860819Y-85127000D01*
X136667000Y-85127000D01*
X136413000Y-85127000D01*
X136393000Y-85127000D01*
X136393000Y-84873000D01*
X136413000Y-84873000D01*
X136413000Y-83679845D01*
X136667000Y-83679845D01*
X136667000Y-84873000D01*
X137860819Y-84873000D01*
X137981486Y-84643108D01*
X137735183Y-84118642D01*
X137306924Y-83728355D01*
X136896890Y-83558524D01*
X136667000Y-83679845D01*
X136413000Y-83679845D01*
X136183110Y-83558524D01*
X135773076Y-83728355D01*
X135344817Y-84118642D01*
X135290259Y-84234815D01*
X135290259Y-84150000D01*
X135260150Y-83989985D01*
X135165581Y-83843020D01*
X135021285Y-83744427D01*
X134850000Y-83709741D01*
X134557256Y-83709741D01*
X134539731Y-83621637D01*
X134413092Y-83432108D01*
X133167892Y-82186908D01*
X132978364Y-82060270D01*
X132754800Y-82015800D01*
X122740005Y-82015800D01*
X122740000Y-82015799D01*
X122516437Y-82060269D01*
X122516435Y-82060270D01*
X122516436Y-82060270D01*
X122326908Y-82186908D01*
X122326906Y-82186911D01*
X110204075Y-94309741D01*
X108647256Y-94309741D01*
X108629731Y-94221637D01*
X108578174Y-94144477D01*
X108503092Y-94032108D01*
X108503089Y-94032106D01*
X105684200Y-91213216D01*
X105684200Y-89000000D01*
X105639730Y-88776436D01*
X105513092Y-88586908D01*
X105513089Y-88586906D01*
X104593092Y-87666908D01*
X104403564Y-87540270D01*
X104180000Y-87495800D01*
X103946748Y-87495800D01*
X103731481Y-87173631D01*
X103315636Y-86895771D01*
X102825112Y-86798200D01*
X102774888Y-86798200D01*
X102284364Y-86895771D01*
X101868519Y-87173631D01*
X101590659Y-87589476D01*
X101493088Y-88080000D01*
X101590659Y-88570524D01*
X101868519Y-88986369D01*
X102274552Y-89257673D01*
X101918642Y-89424817D01*
X101528355Y-89853076D01*
X101358524Y-90263110D01*
X100342900Y-90263110D01*
X100342900Y-83332152D01*
X100539348Y-83807592D01*
X101188988Y-84458367D01*
X102038217Y-84810998D01*
X102957749Y-84811800D01*
X103807592Y-84460652D01*
X104458367Y-83811012D01*
X104810998Y-82961783D01*
X104811800Y-82042251D01*
X104460652Y-81192408D01*
X103811012Y-80541633D01*
X103332410Y-80342900D01*
X144667848Y-80342900D01*
X144192408Y-80539348D01*
X144192408Y-80539348D01*
G37*
X144192408Y-80539348D02*
X143541633Y-81188988D01*
X143189002Y-82038217D01*
X143188200Y-82957749D01*
X143539348Y-83807592D01*
X144188988Y-84458367D01*
X145038217Y-84810998D01*
X145957749Y-84811800D01*
X146807592Y-84460652D01*
X147458367Y-83811012D01*
X147657100Y-83332410D01*
X147657100Y-109667848D01*
X147460652Y-109192408D01*
X146811012Y-108541633D01*
X145961783Y-108189002D01*
X145042251Y-108188200D01*
X144192408Y-108539348D01*
X143541633Y-109188988D01*
X143189002Y-110038217D01*
X143188200Y-110957749D01*
X143539348Y-111807592D01*
X144188988Y-112458367D01*
X144667590Y-112657100D01*
X103332152Y-112657100D01*
X103807592Y-112460652D01*
X104458367Y-111811012D01*
X104810998Y-110961783D01*
X104811800Y-110042251D01*
X104460652Y-109192408D01*
X103811012Y-108541633D01*
X102961783Y-108189002D01*
X102042251Y-108188200D01*
X101192408Y-108539348D01*
X100541633Y-109188988D01*
X100342900Y-109667590D01*
X100342900Y-105010000D01*
X101665127Y-105010000D01*
X101665127Y-106710000D01*
X101684609Y-106813539D01*
X101745801Y-106908634D01*
X101839168Y-106972429D01*
X101950000Y-106994873D01*
X103650000Y-106994873D01*
X103753539Y-106975391D01*
X103848634Y-106914199D01*
X103912429Y-106820832D01*
X103934873Y-106710000D01*
X103934873Y-105010000D01*
X103915391Y-104906461D01*
X103854199Y-104811366D01*
X103760832Y-104747571D01*
X103650000Y-104725127D01*
X101950000Y-104725127D01*
X101846461Y-104744609D01*
X101751366Y-104805801D01*
X101687571Y-104899168D01*
X101665127Y-105010000D01*
X100342900Y-105010000D01*
X100342900Y-103320000D01*
X101648474Y-103320000D01*
X101734444Y-103752203D01*
X101979268Y-104118606D01*
X102345671Y-104363430D01*
X102777874Y-104449400D01*
X102822126Y-104449400D01*
X103254329Y-104363430D01*
X103620732Y-104118606D01*
X103865556Y-103752203D01*
X103951526Y-103320000D01*
X103865556Y-102887797D01*
X103620732Y-102521394D01*
X103254329Y-102276570D01*
X102822126Y-102190600D01*
X102777874Y-102190600D01*
X102345671Y-102276570D01*
X101979268Y-102521394D01*
X101734444Y-102887797D01*
X101648474Y-103320000D01*
X100342900Y-103320000D01*
X100342900Y-100780000D01*
X101648474Y-100780000D01*
X101734444Y-101212203D01*
X101979268Y-101578606D01*
X102345671Y-101823430D01*
X102777874Y-101909400D01*
X102822126Y-101909400D01*
X103254329Y-101823430D01*
X103620732Y-101578606D01*
X103865556Y-101212203D01*
X103951526Y-100780000D01*
X103865556Y-100347797D01*
X103620732Y-99981394D01*
X103254329Y-99736570D01*
X102822126Y-99650600D01*
X102777874Y-99650600D01*
X102345671Y-99736570D01*
X101979268Y-99981394D01*
X101734444Y-100347797D01*
X101648474Y-100780000D01*
X100342900Y-100780000D01*
X100342900Y-98240000D01*
X101648474Y-98240000D01*
X101734444Y-98672203D01*
X101979268Y-99038606D01*
X102345671Y-99283430D01*
X102777874Y-99369400D01*
X102822126Y-99369400D01*
X103254329Y-99283430D01*
X103620732Y-99038606D01*
X103865556Y-98672203D01*
X103951526Y-98240000D01*
X103865556Y-97807797D01*
X103620732Y-97441394D01*
X103254329Y-97196570D01*
X102822126Y-97110600D01*
X102777874Y-97110600D01*
X102345671Y-97196570D01*
X101979268Y-97441394D01*
X101734444Y-97807797D01*
X101648474Y-98240000D01*
X100342900Y-98240000D01*
X100342900Y-95700000D01*
X101648474Y-95700000D01*
X101734444Y-96132203D01*
X101979268Y-96498606D01*
X102345671Y-96743430D01*
X102777874Y-96829400D01*
X102822126Y-96829400D01*
X103254329Y-96743430D01*
X103620732Y-96498606D01*
X103865556Y-96132203D01*
X103951526Y-95700000D01*
X103865556Y-95267797D01*
X103620732Y-94901394D01*
X103254329Y-94656570D01*
X102822126Y-94570600D01*
X102777874Y-94570600D01*
X102345671Y-94656570D01*
X101979268Y-94901394D01*
X101734444Y-95267797D01*
X101648474Y-95700000D01*
X100342900Y-95700000D01*
X100342900Y-90976890D01*
X101358524Y-90976890D01*
X101528355Y-91386924D01*
X101918642Y-91815183D01*
X102443108Y-92061486D01*
X102672998Y-91940820D01*
X102672998Y-92051461D01*
X102345671Y-92116570D01*
X101979268Y-92361394D01*
X101734444Y-92727797D01*
X101648474Y-93160000D01*
X101734444Y-93592203D01*
X101979268Y-93958606D01*
X102345671Y-94203430D01*
X102777874Y-94289400D01*
X102822126Y-94289400D01*
X103254329Y-94203430D01*
X103620732Y-93958606D01*
X103865556Y-93592203D01*
X103951526Y-93160000D01*
X103865556Y-92727797D01*
X103620732Y-92361394D01*
X103254329Y-92116570D01*
X102927002Y-92051461D01*
X102927002Y-91940820D01*
X103156892Y-92061486D01*
X103681358Y-91815183D01*
X104071645Y-91386924D01*
X104241476Y-90976890D01*
X104120155Y-90747000D01*
X102927000Y-90747000D01*
X102927000Y-90767000D01*
X102673000Y-90767000D01*
X102673000Y-90747000D01*
X101479845Y-90747000D01*
X101358524Y-90976890D01*
X100342900Y-90976890D01*
X100342900Y-90263110D01*
X101358524Y-90263110D01*
X101479845Y-90493000D01*
X102673000Y-90493000D01*
X102673000Y-90473000D01*
X102927000Y-90473000D01*
X102927000Y-90493000D01*
X104120155Y-90493000D01*
X104241476Y-90263110D01*
X104071645Y-89853076D01*
X103681358Y-89424817D01*
X103325448Y-89257673D01*
X103731481Y-88986369D01*
X103943251Y-88669435D01*
X104515800Y-89241983D01*
X104515800Y-91455200D01*
X104560270Y-91678764D01*
X104639043Y-91796657D01*
X104686908Y-91868292D01*
X107128358Y-94309741D01*
X105590000Y-94309741D01*
X105429985Y-94339850D01*
X105283020Y-94434419D01*
X105184427Y-94578715D01*
X105149741Y-94750000D01*
X105149741Y-98250000D01*
X105179850Y-98410015D01*
X105274419Y-98556980D01*
X105418715Y-98655573D01*
X105590000Y-98690259D01*
X110590000Y-98690259D01*
X110750015Y-98660150D01*
X110896980Y-98565581D01*
X110995573Y-98421285D01*
X111030259Y-98250000D01*
X111030259Y-95135925D01*
X114242943Y-91923240D01*
X115377592Y-91923240D01*
X115472132Y-92152044D01*
X115647035Y-92327253D01*
X115875674Y-92422192D01*
X116047606Y-92422342D01*
X125832632Y-102207368D01*
X125964477Y-102295465D01*
X126120000Y-102326400D01*
X144129311Y-102326400D01*
X144134444Y-102352203D01*
X144379268Y-102718606D01*
X144745671Y-102963430D01*
X145177874Y-103049400D01*
X145222126Y-103049400D01*
X145654329Y-102963430D01*
X146020732Y-102718606D01*
X146265556Y-102352203D01*
X146351526Y-101920000D01*
X146265556Y-101487797D01*
X146020732Y-101121394D01*
X145654329Y-100876570D01*
X145327002Y-100811461D01*
X145327002Y-100700820D01*
X145556892Y-100821486D01*
X146081358Y-100575183D01*
X146471645Y-100146924D01*
X146641476Y-99736890D01*
X146520155Y-99507000D01*
X145327000Y-99507000D01*
X145327000Y-99527000D01*
X145073000Y-99527000D01*
X145073000Y-99507000D01*
X143879845Y-99507000D01*
X143758524Y-99736890D01*
X143928355Y-100146924D01*
X144318642Y-100575183D01*
X144843108Y-100821486D01*
X145072998Y-100700820D01*
X145072998Y-100811461D01*
X144745671Y-100876570D01*
X144379268Y-101121394D01*
X144134444Y-101487797D01*
X144129311Y-101513600D01*
X126288336Y-101513600D01*
X121560486Y-96785750D01*
X136775000Y-96785750D01*
X136775000Y-98376310D01*
X136871673Y-98609699D01*
X137050302Y-98788327D01*
X137283691Y-98885000D01*
X139624250Y-98885000D01*
X139783000Y-98726250D01*
X139783000Y-96627000D01*
X140037000Y-96627000D01*
X140037000Y-98726250D01*
X140195750Y-98885000D01*
X142536309Y-98885000D01*
X142769698Y-98788327D01*
X142948327Y-98609699D01*
X143045000Y-98376310D01*
X143045000Y-96785750D01*
X142886250Y-96627000D01*
X140037000Y-96627000D01*
X139783000Y-96627000D01*
X136933750Y-96627000D01*
X136775000Y-96785750D01*
X121560486Y-96785750D01*
X119398426Y-94623690D01*
X136775000Y-94623690D01*
X136775000Y-96214250D01*
X136933750Y-96373000D01*
X139783000Y-96373000D01*
X139783000Y-94273750D01*
X140037000Y-94273750D01*
X140037000Y-96373000D01*
X142886250Y-96373000D01*
X143045000Y-96214250D01*
X143045000Y-94623690D01*
X142948327Y-94390301D01*
X142769698Y-94211673D01*
X142536309Y-94115000D01*
X140195750Y-94115000D01*
X140037000Y-94273750D01*
X139783000Y-94273750D01*
X139624250Y-94115000D01*
X137283691Y-94115000D01*
X137050302Y-94211673D01*
X136871673Y-94390301D01*
X136775000Y-94623690D01*
X119398426Y-94623690D01*
X116622259Y-91847523D01*
X116622408Y-91676760D01*
X116527868Y-91447956D01*
X116352965Y-91272747D01*
X116124326Y-91177808D01*
X115876760Y-91177592D01*
X115647956Y-91272132D01*
X115472747Y-91447035D01*
X115377808Y-91675674D01*
X115377592Y-91923240D01*
X114242943Y-91923240D01*
X122981983Y-83184200D01*
X132512816Y-83184200D01*
X133056037Y-83727421D01*
X132989985Y-83739850D01*
X132843020Y-83834419D01*
X132744427Y-83978715D01*
X132709741Y-84150000D01*
X132709741Y-85850000D01*
X132739850Y-86010015D01*
X132834419Y-86156980D01*
X132978715Y-86255573D01*
X133150000Y-86290259D01*
X133442745Y-86290259D01*
X133460270Y-86378364D01*
X133581815Y-86560270D01*
X133586908Y-86567892D01*
X134532108Y-87513092D01*
X134721637Y-87639731D01*
X134945200Y-87684201D01*
X134945205Y-87684200D01*
X141452816Y-87684200D01*
X144256037Y-90487421D01*
X144189985Y-90499850D01*
X144043020Y-90594419D01*
X143944427Y-90738715D01*
X143909741Y-90910000D01*
X143909741Y-92280807D01*
X141998667Y-90369733D01*
X141866822Y-90281636D01*
X141711299Y-90250701D01*
X125242899Y-90250701D01*
X125087376Y-90281636D01*
X124955531Y-90369733D01*
X124947523Y-90377741D01*
X124776760Y-90377592D01*
X124547956Y-90472132D01*
X124372747Y-90647035D01*
X124277808Y-90875674D01*
X124277592Y-91123240D01*
X124372132Y-91352044D01*
X124547035Y-91527253D01*
X124775674Y-91622192D01*
X125023240Y-91622408D01*
X125252044Y-91527868D01*
X125277785Y-91502172D01*
X125277592Y-91723240D01*
X125372132Y-91952044D01*
X125547035Y-92127253D01*
X125775674Y-92222192D01*
X126023240Y-92222408D01*
X126077808Y-92199861D01*
X126077592Y-92447150D01*
X126172132Y-92675954D01*
X126347035Y-92851163D01*
X126575674Y-92946102D01*
X126823240Y-92946318D01*
X127052044Y-92851778D01*
X127097501Y-92806400D01*
X128426393Y-92806400D01*
X128547035Y-92927253D01*
X128775674Y-93022192D01*
X129023240Y-93022408D01*
X129252044Y-92927868D01*
X129427253Y-92752965D01*
X129522192Y-92524326D01*
X129522408Y-92276760D01*
X129427868Y-92047956D01*
X129386385Y-92006400D01*
X140631664Y-92006400D01*
X143212632Y-94587368D01*
X143344477Y-94675465D01*
X143500000Y-94706400D01*
X144129311Y-94706400D01*
X144134444Y-94732203D01*
X144379268Y-95098606D01*
X144745671Y-95343430D01*
X145177874Y-95429400D01*
X145222126Y-95429400D01*
X145654329Y-95343430D01*
X146020732Y-95098606D01*
X146024601Y-95092816D01*
X146024601Y-95440663D01*
X145662940Y-95802324D01*
X145654329Y-95796570D01*
X145222126Y-95710600D01*
X145177874Y-95710600D01*
X144745671Y-95796570D01*
X144379268Y-96041394D01*
X144134444Y-96407797D01*
X144048474Y-96840000D01*
X144134444Y-97272203D01*
X144379268Y-97638606D01*
X144745671Y-97883430D01*
X145072998Y-97948539D01*
X145072998Y-98059180D01*
X144843108Y-97938514D01*
X144318642Y-98184817D01*
X143928355Y-98613076D01*
X143758524Y-99023110D01*
X143879845Y-99253000D01*
X145073000Y-99253000D01*
X145073000Y-99233000D01*
X145327000Y-99233000D01*
X145327000Y-99253000D01*
X146520155Y-99253000D01*
X146641476Y-99023110D01*
X146471645Y-98613076D01*
X146081358Y-98184817D01*
X145556892Y-97938514D01*
X145327002Y-98059180D01*
X145327002Y-97948539D01*
X145654329Y-97883430D01*
X146020732Y-97638606D01*
X146265556Y-97272203D01*
X146351526Y-96840000D01*
X146265556Y-96407797D01*
X146242077Y-96372659D01*
X146718369Y-95896367D01*
X146806466Y-95764522D01*
X146837401Y-95608999D01*
X146837401Y-93709119D01*
X146806466Y-93553596D01*
X146718369Y-93421751D01*
X146274970Y-92978352D01*
X146356980Y-92925581D01*
X146455573Y-92781285D01*
X146490259Y-92610000D01*
X146490259Y-90910000D01*
X146460150Y-90749985D01*
X146365581Y-90603020D01*
X146221285Y-90504427D01*
X146050000Y-90469741D01*
X145757255Y-90469741D01*
X145739730Y-90381636D01*
X145613092Y-90192108D01*
X142107892Y-86686908D01*
X141918364Y-86560270D01*
X141694800Y-86515800D01*
X135187184Y-86515800D01*
X134943963Y-86272579D01*
X135010015Y-86260150D01*
X135156980Y-86165581D01*
X135255573Y-86021285D01*
X135290259Y-85850000D01*
X135290259Y-85765185D01*
X135344817Y-85881358D01*
X135773076Y-86271645D01*
X136183110Y-86441476D01*
X136413000Y-86320155D01*
X136413000Y-85127000D01*
X136667000Y-85127000D01*
X136667000Y-86320155D01*
X136896890Y-86441476D01*
X137306924Y-86271645D01*
X137735183Y-85881358D01*
X137981486Y-85356892D01*
X137860819Y-85127000D01*
X136667000Y-85127000D01*
X136413000Y-85127000D01*
X136393000Y-85127000D01*
X136393000Y-84873000D01*
X136413000Y-84873000D01*
X136413000Y-83679845D01*
X136667000Y-83679845D01*
X136667000Y-84873000D01*
X137860819Y-84873000D01*
X137981486Y-84643108D01*
X137735183Y-84118642D01*
X137306924Y-83728355D01*
X136896890Y-83558524D01*
X136667000Y-83679845D01*
X136413000Y-83679845D01*
X136183110Y-83558524D01*
X135773076Y-83728355D01*
X135344817Y-84118642D01*
X135290259Y-84234815D01*
X135290259Y-84150000D01*
X135260150Y-83989985D01*
X135165581Y-83843020D01*
X135021285Y-83744427D01*
X134850000Y-83709741D01*
X134557256Y-83709741D01*
X134539731Y-83621637D01*
X134413092Y-83432108D01*
X133167892Y-82186908D01*
X132978364Y-82060270D01*
X132754800Y-82015800D01*
X122740005Y-82015800D01*
X122740000Y-82015799D01*
X122516437Y-82060269D01*
X122516435Y-82060270D01*
X122516436Y-82060270D01*
X122326908Y-82186908D01*
X122326906Y-82186911D01*
X110204075Y-94309741D01*
X108647256Y-94309741D01*
X108629731Y-94221637D01*
X108578174Y-94144477D01*
X108503092Y-94032108D01*
X108503089Y-94032106D01*
X105684200Y-91213216D01*
X105684200Y-89000000D01*
X105639730Y-88776436D01*
X105513092Y-88586908D01*
X105513089Y-88586906D01*
X104593092Y-87666908D01*
X104403564Y-87540270D01*
X104180000Y-87495800D01*
X103946748Y-87495800D01*
X103731481Y-87173631D01*
X103315636Y-86895771D01*
X102825112Y-86798200D01*
X102774888Y-86798200D01*
X102284364Y-86895771D01*
X101868519Y-87173631D01*
X101590659Y-87589476D01*
X101493088Y-88080000D01*
X101590659Y-88570524D01*
X101868519Y-88986369D01*
X102274552Y-89257673D01*
X101918642Y-89424817D01*
X101528355Y-89853076D01*
X101358524Y-90263110D01*
X100342900Y-90263110D01*
X100342900Y-83332152D01*
X100539348Y-83807592D01*
X101188988Y-84458367D01*
X102038217Y-84810998D01*
X102957749Y-84811800D01*
X103807592Y-84460652D01*
X104458367Y-83811012D01*
X104810998Y-82961783D01*
X104811800Y-82042251D01*
X104460652Y-81192408D01*
X103811012Y-80541633D01*
X103332410Y-80342900D01*
X144667848Y-80342900D01*
X144192408Y-80539348D01*
M02*
