%TF.GenerationSoftware,KiCad,Pcbnew,4.0.7*%
%TF.CreationDate,2018-06-02T01:16:41-04:00*%
%TF.ProjectId,TemperatureHumidityEPD,54656D706572617475726548756D6964,rev?*%
%TF.FileFunction,Legend,Bot*%
%FSLAX46Y46*%
G04 Gerber Fmt 4.6, Leading zero omitted, Abs format (unit mm)*
G04 Created by KiCad (PCBNEW 4.0.7) date Saturday, 02 June 2018 'AMt' 01:16:41*
%MOMM*%
%LPD*%
G01*
G04 APERTURE LIST*
%ADD10C,0.127000*%
%ADD11C,0.150000*%
G04 APERTURE END LIST*
D10*
D11*
X119875000Y-93000000D02*
X119875000Y-100000000D01*
X128125000Y-93000000D02*
X119875000Y-93000000D01*
X128125000Y-100000000D02*
X128125000Y-93000000D01*
X119875000Y-100000000D02*
X128125000Y-100000000D01*
X113000000Y-104500000D02*
X113000000Y-100000000D01*
X113000000Y-100000000D02*
X109800000Y-100000000D01*
X109800000Y-100000000D02*
X109800000Y-93000000D01*
X113000000Y-93000000D02*
X109800000Y-93000000D01*
X113000000Y-88500000D02*
X113000000Y-93000000D01*
X113000000Y-88500000D02*
X135000000Y-88500000D01*
X135000000Y-88500000D02*
X135000000Y-93000000D01*
X135000000Y-93000000D02*
X138200000Y-93000000D01*
X138200000Y-100000000D02*
X138200000Y-93000000D01*
X135000000Y-100000000D02*
X138200000Y-100000000D01*
X135000000Y-104500000D02*
X135000000Y-100000000D01*
X113000000Y-104500000D02*
X135000000Y-104500000D01*
X124984614Y-86632171D02*
X124841757Y-86679790D01*
X124794138Y-86727410D01*
X124746519Y-86822648D01*
X124746519Y-86965505D01*
X124794138Y-87060743D01*
X124841757Y-87108362D01*
X124936995Y-87155981D01*
X125317948Y-87155981D01*
X125317948Y-86155981D01*
X124984614Y-86155981D01*
X124889376Y-86203600D01*
X124841757Y-86251219D01*
X124794138Y-86346457D01*
X124794138Y-86441695D01*
X124841757Y-86536933D01*
X124889376Y-86584552D01*
X124984614Y-86632171D01*
X125317948Y-86632171D01*
X124460805Y-86155981D02*
X123889376Y-86155981D01*
X124175091Y-87155981D02*
X124175091Y-86155981D01*
X123032233Y-87155981D02*
X123603662Y-87155981D01*
X123317948Y-87155981D02*
X123317948Y-86155981D01*
X123413186Y-86298838D01*
X123508424Y-86394076D01*
X123603662Y-86441695D01*
M02*
