%TF.GenerationSoftware,KiCad,Pcbnew,4.0.7*%
%TF.CreationDate,2018-06-02T01:16:41-04:00*%
%TF.ProjectId,TemperatureHumidityEPD,54656D706572617475726548756D6964,rev?*%
%TF.FileFunction,Soldermask,Top*%
%FSLAX46Y46*%
G04 Gerber Fmt 4.6, Leading zero omitted, Abs format (unit mm)*
G04 Created by KiCad (PCBNEW 4.0.7) date Saturday, 02 June 2018 'AMt' 01:16:41*
%MOMM*%
%LPD*%
G01*
G04 APERTURE LIST*
%ADD10C,0.127000*%
%ADD11R,0.950000X0.550000*%
%ADD12R,1.600000X2.500000*%
%ADD13R,1.350000X1.600000*%
%ADD14R,1.600000X1.350000*%
%ADD15R,1.800000X1.800000*%
%ADD16O,1.800000X1.800000*%
%ADD17R,1.600000X1.400000*%
%ADD18C,4.164000*%
%ADD19R,1.400000X1.600000*%
%ADD20R,1.550000X0.550000*%
%ADD21R,1.000000X0.900000*%
G04 APERTURE END LIST*
D10*
D11*
X130150000Y-95575000D03*
X130150000Y-96600000D03*
X130150000Y-97625000D03*
X133050000Y-97625000D03*
X133055000Y-96600000D03*
X133050000Y-95575000D03*
D12*
X131600000Y-96600000D03*
D13*
X114100000Y-90750000D03*
X114100000Y-93250000D03*
X114100000Y-96350000D03*
X114100000Y-98850000D03*
X126700000Y-95650000D03*
X126700000Y-98150000D03*
D14*
X127250000Y-85000000D03*
X129750000Y-85000000D03*
D13*
X135400000Y-98050000D03*
X135400000Y-100550000D03*
D15*
X102800000Y-105860000D03*
D16*
X102800000Y-103320000D03*
X102800000Y-100780000D03*
X102800000Y-98240000D03*
X102800000Y-95700000D03*
X102800000Y-93160000D03*
X102800000Y-90620000D03*
X102800000Y-88080000D03*
D15*
X145200000Y-91760000D03*
D16*
X145200000Y-94300000D03*
X145200000Y-96840000D03*
X145200000Y-99380000D03*
X145200000Y-101920000D03*
D15*
X134000000Y-85000000D03*
D16*
X136540000Y-85000000D03*
D17*
X114950000Y-103000000D03*
X117650000Y-103000000D03*
D18*
X145500000Y-110500000D03*
X102500000Y-82500000D03*
X102500000Y-110500000D03*
X145500000Y-82500000D03*
D17*
X120150000Y-90500000D03*
X117450000Y-90500000D03*
D19*
X130200000Y-89750000D03*
X130200000Y-92450000D03*
X133400000Y-89650000D03*
X133400000Y-92350000D03*
D20*
X117350000Y-93675000D03*
X117350000Y-94325000D03*
X117350000Y-94975000D03*
X117350000Y-95625000D03*
X117350000Y-96275000D03*
X117350000Y-96925000D03*
X117350000Y-97575000D03*
X117350000Y-98225000D03*
X117350000Y-98875000D03*
X117350000Y-99525000D03*
X123250000Y-99525000D03*
X123250000Y-98875000D03*
X123250000Y-98225000D03*
X123250000Y-97575000D03*
X123250000Y-96925000D03*
X123250000Y-96275000D03*
X123250000Y-95625000D03*
X123250000Y-94975000D03*
X123250000Y-94325000D03*
X123250000Y-93675000D03*
D21*
X113776000Y-85100200D03*
X113776000Y-83200200D03*
X111776000Y-84150200D03*
D17*
X117572800Y-83007200D03*
X120272800Y-83007200D03*
X120272800Y-85775800D03*
X117572800Y-85775800D03*
M02*
