M48
;DRILL file {KiCad 4.0.7} date Monday, 09 April 2018 'AMt' 00:34:58
;FORMAT={-:-/ absolute / inch / decimal}
FMAT,2
INCH,TZ
T1C0.013
T2C0.039
T3C0.120
%
G90
G05
M72
T1
X4.5669Y-3.6142
X4.8661Y-4.0157
X4.9173Y-3.5827
X4.9567Y-3.6063
X4.9882Y-3.6348
X5.0512Y-3.7205
X5.0748Y-3.6378
T2
X4.0472Y-3.4677
X4.0472Y-3.5677
X4.0472Y-3.6677
X4.0472Y-3.7677
X4.0472Y-3.8677
X4.0472Y-3.9677
X4.0472Y-4.0677
X4.0472Y-4.1677
X5.2756Y-3.3465
X5.3756Y-3.3465
X5.7165Y-3.6126
X5.7165Y-3.7126
X5.7165Y-3.8126
X5.7165Y-3.9126
X5.7165Y-4.0126
T3
X4.0354Y-3.248
X4.0354Y-4.3504
X5.7283Y-3.248
X5.7283Y-4.3504
T0
M30
